HIERARCHY
ROOT hip
{
	OFFSET 0.000000 0.000000 0.000000 
	CHANNELS 6 Xposition Yposition Zposition Xrotation Zrotation Yrotation
	JOINT abdomen
	{
		OFFSET 0.000000 3.402643 0.000000 
		CHANNELS 3 Xrotation Zrotation Yrotation
		JOINT chest
		{
			OFFSET 0.000000 8.438565 -0.680529 
			CHANNELS 3 Xrotation Zrotation Yrotation
			JOINT neck
			{
				OFFSET 0.000000 10.207942 -0.272212 
				CHANNELS 3 Xrotation Zrotation Yrotation
				JOINT head
				{
					OFFSET 0.000000 3.130431 0.000000 
					CHANNELS 3 Xrotation Zrotation Yrotation
					End Site
					{
						OFFSET 0.000000 3.130435 0.000000 
					}
				}
			}
			JOINT lCollar
			{
				OFFSET 3.470700 6.669187 -0.816635 
				CHANNELS 3 Yrotation Zrotation Xrotation
				JOINT lShldr
				{
					OFFSET 3.198488 0.000000 0.000000 
					CHANNELS 3 Zrotation Yrotation Xrotation
					JOINT lForeArm
					{
						OFFSET 10.139888 0.000000 0.000000 
						CHANNELS 3 Yrotation Zrotation Xrotation
						JOINT lHand
						{
							OFFSET 8.370511 0.000000 0.000000 
							CHANNELS 3 Zrotation Yrotation Xrotation
							End Site
							{
								OFFSET 4.083176 0.000000 0.000000 
							}
						}
					}
				}
			}
			JOINT rCollar
			{
				OFFSET -3.470700 6.669187 -0.816635 
				CHANNELS 3 Yrotation Zrotation Xrotation
				JOINT rShldr
				{
					OFFSET -3.198488 0.000000 0.000000 
					CHANNELS 3 Zrotation Yrotation Xrotation
					JOINT rForeArm
					{
						OFFSET -10.139888 0.000000 0.000000 
						CHANNELS 3 Yrotation Zrotation Xrotation
						JOINT rHand
						{
							OFFSET -8.370511 0.000000 0.000000 
							CHANNELS 3 Zrotation Yrotation Xrotation
							End Site
							{
								OFFSET -4.083176 0.000000 0.000000 
							}
						}
					}
				}
			}
		}
	}
	JOINT lThigh
	{
		OFFSET 5.308129 -1.633274 1.361059 
		CHANNELS 3 Xrotation Zrotation Yrotation
		JOINT lShin
		{
			OFFSET -2.041588 -20.007561 0.000000 
			CHANNELS 3 Xrotation Zrotation Yrotation
			JOINT lFoot
			{
				OFFSET 0.000000 -19.190928 -1.224953 
				CHANNELS 3 Xrotation Yrotation Zrotation
				End Site
				{
					OFFSET 0.000000 -2.449906 4.627600 
				}
			}
		}
	}
	JOINT rThigh
	{
		OFFSET -5.308129 -1.633274 1.361059 
		CHANNELS 3 Xrotation Zrotation Yrotation
		JOINT rShin
		{
			OFFSET 2.041588 -20.007561 0.000000 
			CHANNELS 3 Xrotation Zrotation Yrotation
			JOINT rFoot
			{
				OFFSET 0.000000 -19.190928 -1.224953 
				CHANNELS 3 Xrotation Yrotation Zrotation
				End Site
				{
					OFFSET 0.000000 -2.449906 4.627600 
				}
			}
		}
	}
}
MOTION
Frames: 16
Frame Time: 0.033333
19.667446 52.797863 -69.101234 -10.224608 -0.537109 167.402222 36.848961 -19.286276 -7.928345 -35.000000 26.738283 2.406739 51.543785 8.068693 2.607051 -77.304688 -9.980468 37.656250 2.000000 -2.000000 0.000000 29.785158 68.925781 108.358727 -90.160545 0.000626 -3.233530 -29.197096 26.904760 -84.841644 -2.000000 2.000000 0.000000 15.693358 -23.076174 66.767578 90.116470 -0.070092 -2.709539 51.284363 -55.715439 -117.543541 -31.463007 36.783928 12.741052 46.307598 -4.114280 -4.467513 15.082604 -2.294957 4.215454 1.150434 -10.567349 -8.601715 -2.127217 5.530584 -0.302277 3.674851 6.128030 3.175866 
18.957932 52.963940 -69.653557 -10.410156 -1.396484 163.866943 35.512718 -18.801167 -7.096761 -36.582031 26.201172 2.207033 51.543785 8.068693 2.607051 -86.582031 -6.318359 43.662109 2.000000 -2.000000 0.000000 36.308598 69.716797 120.077515 -95.973335 0.435063 -2.994725 -33.678936 21.343452 -89.088661 -2.000000 2.000000 0.000000 11.884766 -30.224611 76.528290 96.285805 -0.465151 -2.644454 55.474163 -48.792973 -119.555931 -25.945625 36.566689 18.643993 45.264645 -4.192556 -4.351686 4.087343 -1.483251 5.815102 0.057636 -12.218102 -8.015810 -1.404816 5.529616 -0.083735 6.567886 8.781715 2.076380 
18.065361 52.829491 -70.557442 -10.585938 -2.265625 160.341797 34.408630 -17.762348 -6.369127 -37.148438 25.498047 2.255860 51.543785 8.068693 2.607051 -93.623047 -2.500000 48.642578 2.000000 -2.000000 0.000000 38.369141 71.611328 126.728012 -101.792404 0.700551 -2.971014 -37.549355 15.110458 -92.843262 -2.000000 2.000000 0.000000 7.578125 -38.681644 85.810547 103.155563 -0.611527 -2.819073 59.267334 -40.177731 -118.141647 -20.771353 36.020218 25.420053 41.740959 -4.241188 -3.982370 -1.773978 -1.434846 7.909521 -0.742802 -14.281095 -6.213629 -1.218570 5.692862 -0.091921 6.759348 11.346498 2.001081 
17.025320 52.497368 -71.731087 -10.585937 -3.300781 156.854904 33.450665 -15.785221 -5.461130 -36.152344 23.759766 2.753907 51.543785 8.068693 2.607051 -97.431641 1.044922 52.597836 2.000000 -2.000000 0.000000 36.347656 74.462891 128.515274 -107.091484 1.116793 -2.877821 -40.849972 9.745222 -95.471329 -2.000000 2.000000 0.000000 3.906250 -45.859375 94.387527 110.582237 -1.273769 -2.701139 62.789452 -32.859020 -116.476433 -14.766213 33.405704 33.455807 32.067242 -4.942305 -3.033944 1.831781 0.244941 11.585865 -1.269644 -16.871479 -2.329652 -1.425222 5.524404 -0.085252 5.893114 12.111337 2.923975 
15.790564 52.070335 -73.058907 -10.410156 -4.326172 153.505127 32.699963 -13.068566 -4.327301 -33.662109 21.298828 3.528938 51.543785 8.068693 2.607051 -99.677734 3.828125 56.358074 2.000000 -2.000000 0.000000 30.390627 76.845711 125.624748 -110.806366 1.226154 -2.679030 -42.407822 4.667052 -98.035339 -2.000000 2.000000 0.000000 2.138672 -50.595699 100.019531 116.399712 -1.172752 -2.587718 64.892326 -29.333340 -116.431900 -9.573676 29.084902 41.295345 18.467688 -5.368111 -2.218591 11.578518 3.346165 16.886139 -2.128016 -19.643316 1.801785 -2.514677 5.334251 0.003660 5.035910 12.953246 5.098048 
14.677518 51.682838 -74.181046 -10.449220 -5.205079 150.332031 32.447411 -10.798906 -3.518294 -31.787109 20.078125 4.042970 51.543785 8.068693 2.607051 -100.175781 5.673827 58.759769 2.000000 -2.000000 0.000000 27.373047 75.625000 124.609070 -111.682022 1.222341 -2.913278 -41.040943 2.344550 -99.979996 -2.000000 2.000000 0.000000 4.521484 -50.771484 101.115486 120.465279 -1.302451 -2.712581 66.608711 -33.782936 -122.658203 -6.205565 25.638983 47.530811 9.460142 -5.241164 -1.263184 17.364365 5.394527 20.619543 -3.006433 -22.593494 6.407970 -3.238168 5.337147 0.293820 4.327478 13.068945 7.013651 
13.618045 51.319069 -74.974747 -10.078124 -6.083984 147.284119 32.760098 -8.881631 -2.807200 -30.283205 20.751951 4.316407 51.543785 8.068693 2.607051 -98.925774 6.249999 60.342865 2.000000 -2.000000 0.000000 23.046875 72.558594 122.655800 -109.928230 1.282124 -3.063417 -37.559074 1.370640 -102.132721 -2.000000 2.000000 0.000000 9.267577 -47.240829 98.270790 123.112946 -1.426364 -2.768660 69.009575 -42.876404 -132.655777 -5.362327 24.901640 51.771923 14.214427 -5.154128 -1.722659 9.606653 5.493955 20.911652 -4.842333 -24.938087 11.773540 -3.414917 5.339238 -0.072587 3.677469 12.895200 9.364305 
12.461637 50.892033 -75.592560 -9.931641 -6.963090 144.784775 33.452473 -7.024576 -2.023139 -28.916019 22.275391 4.541016 51.543785 8.068693 2.607051 -96.464844 5.869140 61.337891 2.000000 -2.000000 0.000000 16.884766 70.703125 118.984367 -107.986732 1.103254 -3.111711 -35.579353 0.830100 -103.623459 -2.000000 2.000000 0.000000 11.601563 -43.837891 95.986328 124.884094 -1.594796 -2.563304 71.026291 -49.831593 -139.113068 -5.739326 24.816820 54.823177 20.541605 -5.282372 -1.917348 0.797794 5.768335 21.345846 -7.222449 -27.073647 16.136696 -2.684352 5.371161 -0.021640 2.620185 12.798285 10.961828 
11.396137 50.559914 -75.966309 -9.589845 -7.666016 142.402359 34.265354 -5.671301 -1.706814 -27.890625 23.798828 4.710974 51.543785 8.068693 2.607051 -93.632813 5.185547 61.348541 2.000000 -2.000000 0.000000 11.044922 70.810547 115.468201 -107.446602 1.109456 -3.004512 -36.168121 -0.087081 -106.995804 -2.000000 2.000000 0.000000 10.976563 -43.388672 95.957031 125.579079 -1.591400 -2.621778 66.256195 -52.481930 -134.964355 -5.435694 24.379202 56.811226 24.975607 -5.176133 -2.640235 -6.857158 7.351926 20.797117 -10.511529 -28.352699 19.415270 -0.583966 5.295033 0.568143 1.744113 13.956006 12.129903 
10.776428 50.385921 -76.086082 -9.414062 -7.988281 140.662704 34.375320 -5.461114 -1.961676 -27.080078 24.628908 4.896649 51.543785 8.068693 2.607051 -91.337891 5.390625 60.439457 2.000000 -2.000000 0.000000 8.955078 70.810547 113.525391 -107.072662 0.959676 -2.888264 -38.267548 0.419755 -110.100258 -2.000000 2.000000 0.000000 9.306641 -45.029301 98.108322 125.754066 -1.583349 -2.591976 58.824989 -52.358543 -124.882057 -5.366208 23.784920 57.883175 26.374659 -4.921733 -2.755195 -7.531541 7.498610 19.895046 -13.714385 -28.666510 22.884823 2.949140 5.300170 0.571895 0.685875 15.117881 13.446362 
10.597609 50.275215 -76.022446 -9.267578 -8.193360 139.959549 34.092831 -5.791276 -2.973075 -26.894533 24.453127 4.755859 51.543785 8.068693 2.607051 -90.253906 6.035156 60.000000 2.000000 -2.000000 0.000000 10.019531 70.185547 112.821686 -106.906487 1.115664 -2.897312 -41.624233 1.654375 -108.345428 -2.000000 2.000000 0.000000 8.505859 -45.507813 99.746094 125.243813 -1.598194 -2.505103 54.183254 -50.794109 -114.743500 -5.034770 23.842382 57.275154 27.592943 -5.059668 -2.899451 -8.076985 8.484752 18.558865 -15.999882 -28.365082 24.443840 6.825245 5.231736 0.992985 0.002121 15.943094 13.012313 
10.636031 50.283127 -75.878494 -9.062500 -7.841797 140.770157 33.331158 -6.490700 -4.363890 -27.099611 24.111328 4.228516 51.543785 8.068693 2.607051 -89.912109 6.171875 59.921879 2.000000 -2.000000 0.000000 11.337892 68.906250 110.712234 -106.385323 0.957015 -3.103229 -46.392994 3.457289 -100.931725 -2.000000 2.000000 0.000000 9.677735 -43.759766 99.504959 123.677475 -1.946213 -2.408003 54.610321 -47.514858 -105.848587 -4.817123 23.855021 55.933804 27.072319 -5.078486 -2.878475 -7.273545 8.441587 17.961582 -16.424507 -27.626289 23.339777 9.630712 5.172303 1.273453 -0.352191 16.317087 12.549869 
10.930986 50.378017 -75.711113 -8.876952 -7.128906 143.455811 32.640419 -7.405652 -6.043804 -27.324219 23.593752 3.847657 51.543785 8.068693 2.607051 -89.189453 5.869140 57.579128 2.000000 -2.000000 0.000000 12.968750 67.343750 108.085938 -105.850616 0.943001 -2.838406 -51.805119 6.460600 -90.864235 -2.000000 2.000000 0.000000 11.201173 -41.484379 99.280640 121.366234 -1.803492 -2.507265 57.495392 -43.305725 -97.292084 -4.634030 23.353874 53.376667 24.630802 -5.146049 -2.643614 -4.842997 8.605930 18.060955 -14.900703 -27.303305 19.389194 11.598629 5.123017 1.433160 -0.194715 16.694078 10.787836 
11.385279 50.512459 -75.460030 -8.515624 -6.435547 147.713745 31.965452 -8.502111 -7.771568 -27.539063 22.919922 3.447266 51.543785 8.068693 2.607051 -87.617188 5.830077 51.591797 2.000000 -2.000000 0.000000 14.833984 65.820313 105.029305 -106.210365 0.955324 -3.132465 -55.332291 12.116845 -79.789223 -2.000000 2.000000 0.000000 13.593750 -38.740234 97.343750 119.049789 -1.320819 -2.733203 61.762089 -39.664646 -88.861717 -4.105409 22.564352 49.434189 19.888742 -5.311312 -1.836328 -1.001932 7.598275 19.266947 -11.550930 -27.244198 13.329745 12.827312 5.090620 1.610429 -0.202856 16.397900 8.806288 
11.961505 50.741791 -75.116760 -7.597656 -5.595703 153.631851 31.208948 -10.146544 -9.377040 -27.783205 22.060549 3.017579 51.543785 8.068693 2.607051 -85.683594 5.214844 43.750000 2.000000 -2.000000 0.000000 16.025391 65.458984 102.020599 -107.442230 1.118488 -2.848585 -52.074284 18.665710 -67.523743 -2.000000 2.000000 0.000000 16.132814 -36.406254 94.720764 117.457291 -1.498322 -2.372175 65.787239 -39.082050 -79.595116 -3.256401 20.345087 44.186527 13.169328 -5.162798 -1.567896 4.425335 7.706795 19.714100 -7.106743 -27.396631 5.772120 13.519024 5.063129 1.636069 0.186713 15.811652 6.518743 
12.663522 50.963219 -74.608025 -6.552734 -4.892578 160.673828 31.021418 -11.988302 -10.991845 -27.812500 21.367188 2.864887 51.543785 8.068693 2.607051 -82.792969 3.310547 34.384766 2.000000 -2.000000 0.000000 13.994140 66.572266 97.080078 -109.915985 1.063531 -2.952957 -39.826664 25.353033 -51.439480 -2.000000 2.000000 0.000000 18.427734 -34.677734 89.511719 117.104347 -1.345740 -2.304628 66.926895 -43.121330 -69.069458 -1.127247 17.306831 36.082932 1.728513 -5.325107 -0.449593 14.386811 8.568566 19.083124 -2.128848 -26.580683 -1.722669 14.582027 5.023836 1.690867 0.402584 13.695460 4.950992 
